<?xml version="1.0" encoding="iso-8859-1"?>
<!-- Generator: Adobe Illustrator 19.0.0, SVG Export Plug-In . SVG Version: 6.00 Build 0)  -->
<svg version="1.1" id="Layer_1" xmlns="http://www.w3.org/2000/svg" xmlns:xlink="http://www.w3.org/1999/xlink" x="0px" y="0px"
	 viewBox="0 0 512.18 512.18" style="enable-background:new 0 0 512.18 512.18;" xml:space="preserve">
<g transform="translate(-1)">
	<g>
		<g>
			<path d="M512.825,170.884c-0.14-1.786-0.298-3.155-0.44-4.095C505.22,85.648,445.691,21.423,368.434,21.423
				c-43.806,0-84.286,25.204-111.378,63.119c-27.017-37.956-67.294-63.119-111.086-63.119c-76.994,0-136.385,63.79-144.033,145.827
				c-0.147,0.956-0.295,2.12-0.43,3.489c-1.307,13.254-0.22,30.816,4.831,52.214c10.732,45.463,35.828,86.871,71.224,118.958
				l165.487,143.624c8.015,6.956,19.925,6.963,27.948,0.015l165.483-143.296c39.184-40.771,62.443-77.41,71.666-119.627
				C512.771,201.424,513.848,183.977,512.825,170.884z M466.46,213.526c-7.254,33.204-26.552,63.603-59.352,97.843L257.052,441.195
				l-151.18-131.201C77.095,283.9,56.57,250.033,47.863,213.151c-3.953-16.747-4.747-29.585-3.895-38.225
				c0.075-0.764,0.393-3.072,0.393-3.072C49.849,110.077,92.478,64.09,145.97,64.09c37.132,0,73.538,29.964,91.407,72.297
				c7.338,17.382,31.97,17.382,39.308,0c17.82-42.214,54.532-72.297,91.749-72.297c53.494,0,96.121,45.99,101.609,107.786
				c0.147,1.242,0.187,1.586,0.245,2.333C470.993,183.234,470.174,196.504,466.46,213.526z"/>
			<path d="M130.888,193.552c-0.964-4.106-1.5-7.508-1.73-10.194l0.263-4.607c1.478-16.669,10.246-29.334,16.547-29.334
				c11.782,0,21.333-9.551,21.333-21.333c0-11.782-9.551-21.333-21.333-21.333c-33.518,0-55.871,32.293-59.096,68.912l-0.389,6.628
				l0.002,2.47c0.309,5.252,1.201,11.447,2.874,18.578c6.677,28.23,22.324,54.347,44.137,74.12
				c8.729,7.913,22.221,7.251,30.134-1.478c7.913-8.729,7.251-22.221-1.478-30.134C146.663,231.806,135.549,213.254,130.888,193.552
				z"/>
		</g>
	</g>
</g>
<g>
</g>
<g>
</g>
<g>
</g>
<g>
</g>
<g>
</g>
<g>
</g>
<g>
</g>
<g>
</g>
<g>
</g>
<g>
</g>
<g>
</g>
<g>
</g>
<g>
</g>
<g>
</g>
<g>
</g>
</svg>
